<svg width="35" height="34" viewBox="0 0 35 34" fill="#524F5E" xmlns="http://www.w3.org/2000/svg">
<g clip-path="url(#clip0_9_817)" >

<path d="M11.7452 14.8763H3.47551C2.6382 14.8756 1.83539 14.5528 1.24323 13.9787C0.651076 13.4047 0.31793 12.6263 0.316895 11.8144V3.89484C0.31793 3.0829 0.651076 2.30452 1.24323 1.73048C1.83539 1.15645 2.6382 0.833639 3.47551 0.832886H11.7452C12.5824 0.83389 13.3849 1.15681 13.9769 1.73082C14.5688 2.30483 14.9018 3.08307 14.9029 3.89484V11.8144C14.9018 12.6261 14.5688 13.4044 13.9769 13.9784C13.3849 14.5524 12.5824 14.8753 11.7452 14.8763ZM3.47551 3.20429C3.28663 3.20454 3.10554 3.27734 2.97189 3.40676C2.83824 3.53618 2.76291 3.71168 2.7624 3.89484V11.8144C2.76291 11.9975 2.83824 12.173 2.97189 12.3024C3.10554 12.4319 3.28663 12.5047 3.47551 12.5049H11.7452C11.934 12.5047 12.115 12.4318 12.2485 12.3024C12.382 12.1729 12.4571 11.9974 12.4573 11.8144V3.89484C12.4571 3.71177 12.382 3.53627 12.2485 3.40682C12.115 3.27737 11.934 3.20454 11.7452 3.20429H3.47551Z"/>
<path d="M11.7853 33.5582H3.51554C2.67815 33.5572 1.87534 33.2342 1.28321 32.66C0.691083 32.0858 0.357969 31.3073 0.356934 30.4953V22.5767C0.35797 21.7648 0.691115 20.9864 1.28327 20.4124C1.87543 19.8383 2.67824 19.5155 3.51554 19.5148H11.7853C12.6221 19.5163 13.4241 19.8394 14.0156 20.4134C14.6072 20.9873 14.9399 21.7653 14.9409 22.5767V30.4953C14.9402 31.3069 14.6075 32.0851 14.016 32.6593C13.4244 33.2334 12.6222 33.5567 11.7853 33.5582ZM3.51554 21.8862C3.32667 21.8864 3.14558 21.9592 3.01193 22.0886C2.87828 22.2181 2.80295 22.3936 2.80244 22.5767V30.4953C2.8027 30.6786 2.87791 30.8544 3.01159 30.984C3.14526 31.1136 3.3265 31.1865 3.51554 31.1868H11.7853C11.9741 31.1863 12.1551 31.1133 12.2886 30.9837C12.422 30.8541 12.4971 30.6785 12.4974 30.4953V22.5767C12.4971 22.3937 12.422 22.2182 12.2885 22.0887C12.155 21.9593 11.974 21.8864 11.7853 21.8862H3.51554Z"/>
<path d="M30.9073 33.5582H22.6376C21.8002 33.5572 20.9974 33.2342 20.4053 32.66C19.8132 32.0858 19.48 31.3073 19.479 30.4953V22.5767C19.48 21.7648 19.8132 20.9864 20.4053 20.4124C20.9975 19.8383 21.8003 19.5155 22.6376 19.5148H30.9073C31.7445 19.5158 32.547 19.8387 33.139 20.4127C33.7309 20.9867 34.0639 21.765 34.065 22.5767V30.4953C34.0642 31.3072 33.7313 32.0857 33.1393 32.6599C32.5473 33.2341 31.7446 33.5572 30.9073 33.5582ZM22.6376 21.8909C22.4487 21.8912 22.2677 21.964 22.134 22.0934C22.0004 22.2228 21.925 22.3983 21.9245 22.5815V30.5C21.9248 30.6834 22 30.8591 22.1337 30.9887C22.2673 31.1184 22.4486 31.1913 22.6376 31.1915H30.9073C31.0962 31.191 31.2772 31.118 31.4107 30.9884C31.5441 30.8588 31.6192 30.6832 31.6195 30.5V22.5767C31.6192 22.3937 31.5441 22.2182 31.4106 22.0887C31.2771 21.9593 31.0961 21.8864 30.9073 21.8862L22.6376 21.8909Z"/>
<path d="M26.7772 14.8763C25.3478 14.866 23.9536 14.4455 22.7703 13.668C21.587 12.8905 20.6676 11.7906 20.128 10.5072C19.5883 9.22366 19.4526 7.81398 19.738 6.45582C20.0234 5.09765 20.717 3.85181 21.7314 2.87535C22.7459 1.89889 24.0358 1.23552 25.4384 0.96888C26.8411 0.702238 28.2938 0.844258 29.6134 1.37703C30.933 1.90981 32.0603 2.80949 32.8534 3.96266C33.6464 5.11583 34.0696 6.47086 34.0697 7.85692C34.0601 9.72475 33.287 11.5127 31.9199 12.8285C30.5528 14.1444 28.7034 14.8808 26.7772 14.8763ZM26.7772 3.20898C25.8315 3.21927 24.9102 3.50059 24.129 4.01753C23.3479 4.53447 22.7419 5.26393 22.3874 6.11408C22.0328 6.96424 21.9456 7.8971 22.1365 8.79525C22.3275 9.6934 22.7882 10.5167 23.4606 11.1615C24.1331 11.8063 24.9872 12.2438 25.9155 12.419C26.8438 12.5942 27.8047 12.4991 28.6775 12.1458C29.5502 11.7926 30.2956 11.1969 30.8199 10.4337C31.3443 9.6705 31.6241 8.77396 31.6242 7.85692C31.6164 6.61705 31.1017 5.43081 30.193 4.55853C29.2843 3.68625 28.0558 3.19919 26.7772 3.20424V3.20898Z"/>
</g>
<defs>
<clipPath id="clip0_9_817">
<rect width="34.237" height="33.1996" fill="white" transform="translate(0.0722656 0.595703)"/>
</clipPath>
</defs>
</svg>
