<svg width="22" height="20" viewBox="0 0 22 20" fill="none" xmlns="http://www.w3.org/2000/svg">
<g clip-path="url(#clip0_2211_258)">
<path fill-rule="evenodd" clip-rule="evenodd" d="M14 0H5C4.2 0 3.5 0.5 3.2 1.2L0.2 8.3C0.1 8.5 0 8.7 0 9V10.9V11C0 12.1 0.9 13 2 13H8.3L7.3 17.6V17.9C7.3 18.3 7.5 18.7 7.7 19L8.8 20L15.4 13.4C15.8 13 16 12.5 16 12V2C16 0.9 15.1 0 14 0ZM18 0V12H22V0H18Z" />
</g>
<defs>
<clipPath id="clip0_2211_258">
<rect width="22" height="20" fill="white"/>
</clipPath>
</defs>
</svg>
