<svg width="39" height="42" viewBox="0 0 39 42" fill="#524F5E" xmlns="http://www.w3.org/2000/svg">
<path d="M36.4096 19.926C36.1614 19.9243 35.9199 19.8381 35.7188 19.6796L19.7371 7.2557L3.75528 19.6796C3.49888 19.845 3.19487 19.8997 2.90326 19.8329C2.61166 19.766 2.35364 19.5826 2.18015 19.3188C2.00667 19.0549 1.93032 18.7299 1.96618 18.4077C2.00203 18.0856 2.1475 17.7898 2.37384 17.5787L19.0463 4.61011C19.248 4.45373 19.4895 4.36969 19.7371 4.36969C19.9847 4.36969 20.2261 4.45373 20.4278 4.61011L37.1003 17.5787C37.3036 17.739 37.4552 17.9651 37.5335 18.2249C37.6117 18.4846 37.6126 18.7646 37.536 19.0249C37.4594 19.2852 37.3093 19.5125 37.107 19.6744C36.9047 19.8362 36.6606 19.9243 36.4096 19.926Z" />
<path d="M6.63718 12.1449C6.32134 12.1449 6.01843 12.0082 5.79509 11.765C5.57176 11.5218 5.44629 11.192 5.44629 10.848V5.66057C5.44629 5.31662 5.57176 4.98676 5.79509 4.74355C6.01843 4.50034 6.32134 4.36371 6.63718 4.36371H11.4008C11.7166 4.36371 12.0195 4.50034 12.2428 4.74355C12.4662 4.98676 12.5916 5.31662 12.5916 5.66057C12.5916 6.00452 12.4662 6.33438 12.2428 6.57758C12.0195 6.82079 11.7166 6.95743 11.4008 6.95743H7.82807V10.848C7.82807 11.192 7.70261 11.5218 7.47927 11.765C7.25593 12.0082 6.95303 12.1449 6.63718 12.1449Z" />
<path d="M30.455 38.0821H24.5006C24.1847 38.0821 23.8818 37.9454 23.6585 37.7022C23.4352 37.459 23.3097 37.1291 23.3097 36.7852V27.7072H16.1643V36.7852C16.1643 37.1291 16.0389 37.459 15.8155 37.7022C15.5922 37.9454 15.2893 38.0821 14.9734 38.0821H9.01897C8.07143 38.0821 7.16271 37.6722 6.4927 36.9425C5.8227 36.2129 5.44629 35.2233 5.44629 34.1915V21.2229C5.44629 20.8789 5.57176 20.5491 5.79509 20.3059C6.01843 20.0627 6.32134 19.926 6.63718 19.926C6.95303 19.926 7.25593 20.0627 7.47927 20.3059C7.70261 20.5491 7.82807 20.8789 7.82807 21.2229V34.1915C7.82807 34.5354 7.95354 34.8653 8.17688 35.1085C8.40022 35.3517 8.70312 35.4883 9.01897 35.4883H13.7825V26.4103C13.7825 26.0664 13.908 25.7365 14.1313 25.4933C14.3547 25.2501 14.6576 25.1135 14.9734 25.1135H24.5006C24.8164 25.1135 25.1193 25.2501 25.3427 25.4933C25.566 25.7365 25.6915 26.0664 25.6915 26.4103V35.4883H30.455C30.7709 35.4883 31.0738 35.3517 31.2971 35.1085C31.5205 34.8653 31.6459 34.5354 31.6459 34.1915V21.2229C31.6459 20.8789 31.7714 20.5491 31.9947 20.3059C32.2181 20.0627 32.521 19.926 32.8368 19.926C33.1527 19.926 33.4556 20.0627 33.6789 20.3059C33.9023 20.5491 34.0277 20.8789 34.0277 21.2229V34.1915C34.0277 35.2233 33.6513 36.2129 32.9813 36.9425C32.3113 37.6722 31.4026 38.0821 30.455 38.0821Z" />
</svg>
