<svg width="33" height="32" viewBox="0 0 33 32" fill="none" xmlns="http://www.w3.org/2000/svg">
<g clip-path="url(#clip0_2211_224)">
<path d="M30.627 3.52004C30.627 2.6362 29.8978 1.92004 28.9979 1.92004C28.8963 1.92004 19.3042 1.92132 19.3042 1.92132C18.4375 1.92132 17.608 1.87652 17.127 2.34884L2.316 16.8948C1.83444 17.3671 1.83444 18.1338 2.316 18.6061L13.6375 29.7255C14.1184 30.1978 14.8991 30.1978 15.38 29.7255L30.1904 15.1789C30.6713 14.7072 30.6257 13.9117 30.6257 13.0413C30.6257 13.0413 30.627 3.61988 30.627 3.52004Z" fill="#00C908"/>
<path d="M25.4139 8.96C26.4936 8.96 27.3688 8.10038 27.3688 7.04C27.3688 5.97961 26.4936 5.12 25.4139 5.12C24.3342 5.12 23.459 5.97961 23.459 7.04C23.459 8.10038 24.3342 8.96 25.4139 8.96Z" fill="white"/>
</g>
<defs>
<clipPath id="clip0_2211_224">
<rect width="32.5818" height="32" fill="white"/>
</clipPath>
</defs>
</svg>
