<svg width="36" stroke="white" height="36" viewBox="0 0 36 36" fill="none" xmlns="http://www.w3.org/2000/svg">
<path d="M19.0524 2.435L23.1649 11.165C23.3361 11.5275 23.6661 11.7787 24.0486 11.8375L33.2449 13.2375C34.2074 13.3837 34.5911 14.6225 33.8949 15.3337L27.2399 22.1287C26.9636 22.4112 26.8374 22.8175 26.9024 23.2162L28.4736 32.8113C28.6374 33.815 27.6324 34.5812 26.7711 34.1062L18.5461 29.5762C18.2049 29.3875 17.7961 29.3875 17.4549 29.5762L9.22989 34.1062C8.36989 34.58 7.36364 33.815 7.52739 32.8113L9.09864 23.2162C9.16364 22.8175 9.03739 22.4112 8.76114 22.1287L2.10614 15.3337C1.40989 14.6225 1.79364 13.3837 2.75614 13.2375L11.9524 11.8375C12.3349 11.7787 12.6649 11.5275 12.8361 11.165L16.9486 2.435C17.3786 1.52125 18.6211 1.52125 19.0524 2.435Z"  stroke-width="2" stroke-miterlimit="10" stroke-linecap="round" stroke-linejoin="round"/>
</svg>
